<?xml version="1.0" encoding="UTF-8" standalone="no"?>
<svg
   width="414.05316"
   height="414.01657"
   viewBox="0 0 414.05316 414.01657"
   version="1.1"
   id="svg195"
   sodipodi:docname="camel.svg"
   inkscape:version="1.2.2 (b0a8486541, 2022-12-01)"
   xmlns:inkscape="http://www.inkscape.org/namespaces/inkscape"
   xmlns:sodipodi="http://sodipodi.sourceforge.net/DTD/sodipodi-0.dtd"
   xmlns="http://www.w3.org/2000/svg"
   xmlns:svg="http://www.w3.org/2000/svg">
  <defs
     id="defs199" />
  <sodipodi:namedview
     id="namedview197"
     pagecolor="#ffffff"
     bordercolor="#666666"
     borderopacity="1.0"
     inkscape:showpageshadow="2"
     inkscape:pageopacity="0.0"
     inkscape:pagecheckerboard="0"
     inkscape:deskcolor="#d1d1d1"
     showgrid="false"
     inkscape:zoom="0.57004831"
     inkscape:cx="209.63136"
     inkscape:cy="198.22881"
     inkscape:window-width="1465"
     inkscape:window-height="795"
     inkscape:window-x="0"
     inkscape:window-y="0"
     inkscape:window-maximized="1"
     inkscape:current-layer="svg195" />
  <path
     fill-rule="nonzero"
     fill="#ffffff"
     fill-opacity="1"
     d="m 414.05317,207 c 0,114.32422 -92.67578,207 -207,207 C 92.728948,414 0.05316744,321.32422 0.05316744,207 0.05316744,92.675783 92.728948,0 207.05317,0 c 114.32422,0 207,92.675783 207,207 m 0,0"
     id="path191" />
  <path
     fill-rule="nonzero"
     fill="#000000"
     fill-opacity="1"
     d="M 210.88911,0.03125 C 181.18598,-0.484375 151.72114,5.3906253 124.48676,17.261719 19.568792,62.996094 -28.419489,185.125 17.314886,290.04687 56.014105,378.21484 150.33833,428.12109 245.00239,410.5 c 4.03906,-12.85938 7.34375,-26.96875 7.34375,-42.35156 0,-2.1836 -0.0625,-4.375 -0.17969,-6.61719 0,0 7.40234,-12.62891 13.23438,-29.08203 7.22265,-20.34375 3.40234,-42.7461 -9.10938,-60.47656 -0.73047,-0.96875 -1.45703,-2.0625 -2.24219,-3.16016 -73.65234,0 -110.08203,-66.78516 -119.3125,-107.40234 -3.82031,-16.69532 -6.92578,-18.35157 -17.35156,-18.35157 -19.292971,0 -33.210939,-8.0039 -33.210939,-8.0039 -17.714844,8.11718 -25.636719,4.8125 -23.261719,-3.66407 -7.710937,-0.84375 -7.550781,-9.60156 -2.855469,-17.64453 5.878906,-10.08593 17.90625,-16.937497 32.300782,-16.937497 h 7.707031 c 15.910164,0 19.187504,-8.320312 35.578124,-6.558593 2.55078,0.242188 4.92188,0.667969 7.10547,1.214843 4.55469,-5.218749 9.71485,-7.410155 15.97266,-6.984374 0.96875,0.121093 1.57422,0.972656 1.39453,1.882812 l -1.51953,7.042972 c -0.54297,2.61328 0.18359,5.34375 2.0664,7.109377 13.23438,12.3789 20.82422,33.51171 29.32422,52.57812 13.78516,28.10937 47.05469,67.15234 100.42578,17.0625 37.52344,-35.22266 60.19922,-64.58984 97.46485,-67.47656 C 349.42426,40.300781 283.12739,1.40625 210.89301,0.03125 m -88,101.96094 c -5.46484,0 -10.91406,4.38672 -9.0625,5.17187 0.41797,0.17188 1.11719,0.29297 1.91797,0.38672 0.57813,3.4961 3.51563,6.19531 7.17578,6.19531 3.66016,0 6.55078,-2.69921 7.11719,-6.19531 0.80078,-0.0937 1.50391,-0.21484 1.91797,-0.38672 1.85547,-0.78515 -3.59766,-5.17187 -9.06641,-5.17187 m 193.59766,199.24609 c -4.43359,0.10938 -8.41016,2.92188 -9.74219,7.23047 v 0.0586 c -6.61328,21.25 -19.48437,48.69532 -19.48437,48.69532 0,0 -12.8086,22.68359 -20.05469,48.08203 7.78125,-2.2461 15.42187,-4.94922 22.88672,-8.08594 14.60547,-6.39453 28.42187,-14.44531 41.1875,-23.99609 -2.08594,-4.17579 -4.38672,-8.23829 -6.89844,-12.17188 0,0 -4.24609,-18.88672 -12.38672,-39.47266 1.23438,-3.41015 2.38672,-6.85156 3.46094,-10.3164 l 0.0586,-0.24219 c 0.24219,-0.49219 0.79297,-0.66797 1.39844,-0.66797 h 0.0625 c 4.25,0.66797 8.73828,1.33594 13.96094,1.94141 1.58203,0.12109 3.21875,0.24219 4.85937,0.42187 2.00391,0.1836 3.94532,0.36328 5.94922,0.48828 0.48047,19.10547 8.77344,37.35938 10.86719,41.71485 15.28906,-15.05078 28.14844,-32.38281 38.12109,-51.38281 -14.76172,1.68359 -32.8164,2.2539 -54.05468,0.13671 -1.69532,-0.19531 -3.39454,-0.35546 -5.09766,-0.48437 -4.40625,-0.51172 -8.79688,-1.12109 -13.17578,-1.82422 -0.63672,-0.0977 -1.27735,-0.13672 -1.91797,-0.125"
     id="path193" />
</svg>
