<?xml version="1.0" encoding="UTF-8" standalone="no"?>
<svg
   width="16"
   height="20"
   viewBox="0 0 16 20"
   version="1.1"
   id="svg209"
   sodipodi:docname="camel-li.svg"
   inkscape:version="1.2.2 (b0a8486541, 2022-12-01)"
   xmlns:inkscape="http://www.inkscape.org/namespaces/inkscape"
   xmlns:sodipodi="http://sodipodi.sourceforge.net/DTD/sodipodi-0.dtd"
   xmlns="http://www.w3.org/2000/svg"
   xmlns:svg="http://www.w3.org/2000/svg">
  <defs
     id="defs213" />
  <sodipodi:namedview
     id="namedview211"
     pagecolor="#ffffff"
     bordercolor="#666666"
     borderopacity="1.0"
     inkscape:showpageshadow="2"
     inkscape:pageopacity="0.0"
     inkscape:pagecheckerboard="0"
     inkscape:deskcolor="#d1d1d1"
     showgrid="false"
     inkscape:zoom="14.75"
     inkscape:cx="8.0338983"
     inkscape:cy="18.847458"
     inkscape:window-width="1465"
     inkscape:window-height="795"
     inkscape:window-x="0"
     inkscape:window-y="0"
     inkscape:window-maximized="1"
     inkscape:current-layer="svg209" />
  <path
     fill-rule="nonzero"
     fill="#ffffff"
     fill-opacity="1"
     d="m 16.146452,11.88374 c 0,4.417967 -3.582031,7.999998 -8.0000006,7.999998 -4.417969,0 -8.00000012,-3.582031 -8.00000012,-7.999998 0,-4.4179688 3.58203112,-8.0000009 8.00000012,-8.0000009 4.4179696,0 8.0000006,3.5820321 8.0000006,8.0000009 m 0,0"
     id="path205" />
  <path
     fill-rule="nonzero"
     fill="#000000"
     fill-opacity="1"
     d="m 8.2948894,3.8837391 c -1.148438,-0.01953 -2.285157,0.207031 -3.339844,0.667969 -4.05468812,1.7656251 -5.91015609,6.4882819 -4.14062512,10.5429679 1.49609312,3.40625 5.14062512,5.335937 8.79687512,4.652343 0.15625,-0.496093 0.285156,-1.039062 0.285156,-1.636719 0,-0.08203 -0.00391,-0.167968 -0.00781,-0.253906 0,0 0.2890626,-0.488281 0.5117186,-1.125 0.281248,-0.785156 0.132811,-1.652344 -0.351564,-2.335937 -0.02734,-0.03906 -0.05469,-0.08203 -0.08594,-0.121094 -2.8476566,0 -4.2539066,-2.582029 -4.6093756,-4.152342 -0.148437,-0.6445308 -0.269531,-0.7109368 -0.671875,-0.7109368 -0.746094,0 -1.285156,-0.308594 -1.285156,-0.308594 -0.683594,0.316406 -0.988281,0.1875 -0.898438,-0.140625 -0.296874,-0.03125 -0.292968,-0.371094 -0.109374,-0.683594 0.226562,-0.386719 0.691406,-0.652343 1.246093,-0.652343 h 0.300781 c 0.613282,0 0.742188,-0.324219 1.375,-0.253907 0.097657,0.0078 0.1875,0.02734 0.273438,0.04687 0.175781,-0.203125 0.375,-0.285156 0.617188,-0.269531 0.039062,0.0039 0.0625,0.03516 0.054687,0.07031 l -0.058594,0.273437 c -0.023437,0.101563 0.00781,0.207031 0.078125,0.273437 0.511719,0.480469 0.804688,1.296876 1.132813,2.035157 0.535156,1.0859368 1.820312,2.5937498 3.8828126,0.6562498 1.449221,-1.3593668 2.328127,-2.4960858 3.765627,-2.6054608 -1.40625,-2.410157 -3.96875,-3.9140631 -6.7617186,-3.9687511 m -3.402344,3.9414071 c -0.210938,0 -0.421875,0.167969 -0.347656,0.199219 0.015624,0.0078 0.042968,0.01172 0.074218,0.01563 0.019532,0.136719 0.132813,0.238281 0.277344,0.238281 0.140625,0 0.25,-0.101562 0.273438,-0.238281 0.03125,-0.0039 0.058593,-0.0078 0.074218,-0.01563 0.070313,-0.03125 -0.140625,-0.199219 -0.351562,-0.199219 m 7.4843756,7.6992168 c -0.171875,0.0039 -0.324219,0.113281 -0.378907,0.28125 -0.253906,0.824219 -0.75,1.882813 -0.75,1.882813 0,0 -0.496093,0.878906 -0.777343,1.859374 0.300781,-0.08594 0.597656,-0.191406 0.886719,-0.3125 0.5625,-0.246093 1.097656,-0.558593 1.589843,-0.925781 -0.08203,-0.164062 -0.167969,-0.320312 -0.265625,-0.472656 0,0 -0.164062,-0.730469 -0.480468,-1.523437 0.05078,-0.132813 0.09375,-0.265626 0.136718,-0.398438 v -0.01172 c 0.01172,-0.01953 0.03125,-0.02344 0.05469,-0.02344 h 0.0039 c 0.164062,0.02344 0.335938,0.05078 0.539062,0.07422 0.05859,0.0039 0.125,0.0078 0.1875,0.01563 0.07813,0.0078 0.152344,0.01562 0.230469,0.01953 0.01563,0.738281 0.335938,1.441406 0.417969,1.609375 0.589844,-0.578125 1.089844,-1.25 1.472656,-1.984375 -0.570312,0.06641 -1.265625,0.08594 -2.085937,0.0039 -0.06641,-0.0039 -0.132813,-0.01172 -0.199219,-0.01563 -0.171875,-0.01953 -0.339844,-0.04297 -0.507812,-0.07031 -0.02734,-0.0039 -0.05078,-0.0078 -0.07422,-0.0078"
     id="path207" />
</svg>
