<?xml version="1.0" encoding="utf-8"?>
<!-- Svg Vector Icons : http://www.onlinewebfonts.com/icon -->
<!DOCTYPE svg PUBLIC "-//W3C//DTD SVG 1.1//EN" "http://www.w3.org/Graphics/SVG/1.1/DTD/svg11.dtd">
<svg version="1.1" xmlns="http://www.w3.org/2000/svg" xmlns:xlink="http://www.w3.org/1999/xlink" x="0px" y="0px" viewBox="0 0 1000 1000" enable-background="new 0 0 1000 1000" xml:space="preserve">
<metadata> Svg Vector Icons : http://www.onlinewebfonts.com/icon </metadata>
<g><g transform="translate(0.000000,512.000000) scale(0.100000,-0.100000)"><path d="M1216.2,4983.5c-32.5-21.1-68.9-65.1-82.3-99.5c-15.3-44-21-1316.8-21-4767.8c0-4023.2,3.8-4716.1,26.8-4771.6c57.4-134-260.3-124.4,3858.6-124.4s3801.2-9.6,3858.6,124.4c40.2,99.5,40.2,9451.3,0,9550.9c-57.4,134,262.2,124.4-3862.5,124.4C1373.2,5019.8,1273.7,5017.9,1216.2,4983.5z M3321.7,4527.9c17.2-49.8,30.6-95.7,30.6-105.3c0-7.7-365.6-15.3-813.4-15.3h-813.4V120v-4287.4h3272.9h3273V120v4287.4h-821.1h-823l34.5,101.4l34.5,99.5l882.3,5.7l884.3,3.8V120v-4497.9H4998.3H1534V120v4497.9h878.5H3291L3321.7,4527.9z M4385.8,4577.7c0-23,28.7-68.9,65.1-105.3l65.1-65.1h478.5H5473l57.4,47.8c32.5,26.8,63.2,74.6,70.8,105.3l13.4,57.4h323.5c178,0,323.5-7.7,323.5-15.3c0-7.7-28.7-101.5-63.2-204.8l-65.1-191.4h-1135h-1135l-65.1,191.4c-34.5,103.3-63.2,197.1-63.2,204.8c0,7.7,147.4,15.3,325.4,15.3C4378.2,4617.9,4385.8,4617.9,4385.8,4577.7z M3532.2,3900.2l32.5-105.3h1431.7h1429.8l34.5,105.3l32.5,105.3h679.5h677.6V120v-3885.4H4998.3H2146.5V120v3885.4h675.6h675.6L3532.2,3900.2z"/><path d="M4204,2613.9c-21.1-5.7-212.5-181.8-424.9-394.3l-386.6-384.7L3212.6,2011c-149.3,145.5-191.4,176.1-239.2,176.1c-134,0-214.4-84.2-214.4-223.9c0-67,19.1-90,264.1-333c266.1-268,317.7-302.4,421.1-275.6c57.4,13.4,943.6,882.4,991.5,970.4c55.5,103.4,9.6,229.7-97.6,275.6C4269.1,2629.3,4267.2,2629.3,4204,2613.9z"/><path d="M5118.9,2141.2c-63.2-28.7-120.6-114.8-120.6-183.8c0-70.8,57.4-155,124.4-183.7c95.7-40.2,1893-40.2,1988.7,0c135.9,57.4,170.3,210.5,70.8,321.6l-55.5,63.2l-974.2,3.8C5354.3,2166.1,5168.7,2162.2,5118.9,2141.2z"/><path d="M4165.7,558.3c-21.1-11.5-204.8-185.7-405.8-388.5l-369.4-365.6L3243.2-48.4c-170.3,164.6-204.8,187.6-302.4,187.6c-105.3,0-181.8-84.2-181.8-201c0-90,1.9-91.9,241.2-335c132.1-135.9,271.8-260.3,308.2-277.5c126.3-59.3,147.4-44,660.3,467c400,398.1,474.7,482.3,484.2,539.7c13.4,72.7-17.2,160.8-74.6,206.7C4338,573.6,4211.7,585.1,4165.7,558.3z"/><path d="M5063.4,54.9c-93.8-93.8-86.1-218.2,19.1-302.4c36.3-30.6,122.5-34.5,1041.2-34.5h1002.9l55.5,55.5c91.9,93.8,65.1,271.8-49.7,323.4c-36.4,17.2-310.1,23-1025.9,23h-978.1L5063.4,54.9z"/><path d="M3779.1-1855.3l-388.5-386.6l-158.9,155c-178,178-235.4,208.6-331.1,178c-90-30.6-141.6-103.4-141.6-197.1c0-76.6,11.5-90,273.7-352.2c269.9-269.9,273.7-273.7,357.9-273.7h84.2l490,488.1l488.1,488.1v88c0,74.6-9.6,95.7-63.2,143.6c-47.9,42.1-80.4,55.5-141.7,55.5C4169.6-1468.6,4160-1476.3,3779.1-1855.3z"/><path d="M5082.5-1962.4c-105.3-84.2-112.9-208.6-19.1-302.4l65.1-65.1h980c880.4,0,985.7,3.8,1033.6,32.5c111,65.1,130.2,222,40.2,313.9l-55.5,55.5H6123.8C5205-1928,5118.9-1931.8,5082.5-1962.4z"/></g></g>
</svg>