<?xml version="1.0" encoding="utf-8"?>
<!-- Svg Vector Icons : http://www.onlinewebfonts.com/icon -->
<!DOCTYPE svg PUBLIC "-//W3C//DTD SVG 1.1//EN" "http://www.w3.org/Graphics/SVG/1.1/DTD/svg11.dtd">
<svg version="1.1" xmlns="http://www.w3.org/2000/svg" xmlns:xlink="http://www.w3.org/1999/xlink" x="0px" y="0px" viewBox="0 0 1000 1000" enable-background="new 0 0 1000 1000" xml:space="preserve">
<metadata> Svg Vector Icons : http://www.onlinewebfonts.com/icon </metadata>
<g><g transform="translate(0.000000,511.000000) scale(0.100000,-0.100000)"><path d="M4789.5,3816.2c-304.3-65.1-562.7-312-643.1-612.5c-55.5-210.5-19.1-474.7,93.8-666.1c114.8-195.2,365.6-361.8,608.7-400c411.5-67,838.4,214.4,943.6,624c103.3,394.3-78.5,802-436.4,976.2C5149.3,3839.1,4994.3,3862.1,4789.5,3816.2z"/><path d="M842.7,2371.1c-158.9-51.7-264.1-118.7-382.8-248.8c-335-359.8-327.3-888.1,17.2-1236.5C829.3,525.9,1415,533.6,1759.5,903c126.3,134,179.9,231.6,225.9,403.9c114.8,444.1-157,926.4-599.1,1062.3C1229.3,2418.9,993.9,2418.9,842.7,2371.1z"/><path d="M8556.3,2371.1c-158.9-51.7-264.1-118.7-384.7-248.8c-411.5-446-285.2-1140.8,258.4-1406.8c679.5-333,1458.5,285.2,1269,1008.7c-80.4,312-306.3,555.1-599.1,645C8943,2418.9,8707.5,2418.9,8556.3,2371.1z"/><path d="M4368.4,1992.1c-382.8-63.2-713.9-367.5-811.6-744.6c-24.9-97.6-30.6-243.1-30.6-838.4v-719.7h287.1h287.1v689.1v689.1h86.1h86.1V378.5v-689.1h698.6h698.6v689.1v689.1h86.1h86.1V378.5v-689.1h287.1h287.1v708.2c0,438.3-7.7,744.6-21,807.7c-57.4,277.5-273.7,564.6-516.8,681.4c-224,111-292.9,118.7-907.3,116.8C4667,2001.6,4395.2,1995.9,4368.4,1992.1z"/><path d="M714.4,462.7C477.1,399.6,272.3,229.2,165.1,5.3L100-126.8v-1029.8v-1029.8l746.5-3.8l744.6-5.7l-507.2-706.3c-279.5-386.6-503.4-708.2-499.6-712c3.8-3.8,2004-5.8,4442.6-3.8l4434.9,5.7l-482.3,689.1c-264.2,379-486.2,700.6-490,712c-7.6,19.1,139.7,24.9,700.6,24.9H9900v1029.8v1029.8L9834.9,5.3c-38.3,82.3-103.3,172.3-164.6,231.6c-189.5,187.6-379,256.5-708.2,256.5c-323.5,0-524.5-70.8-706.3-250.7C8058.7,49.3,7997.4-121,7997.4-482.8l-1.9-258.4l47.9-5.7c42.1-3.8,80.4,40.2,321.6,388.6C8516.1-144,8667.3,57,8699.9,83.8c114.8,97.6,214.4,128.2,377.1,118.7c170.4-9.6,283.3-63.2,380.9-181.8c122.5-147.4,155-402,72.7-562.7c-88.1-174.2-765.6-1112.1-844.1-1169.5c-151.2-109.1-201-112.9-1039.3-107.2c-853.7,5.7-830.7,3.8-987.7,147.4c-231.6,214.4-225.8,593.4,9.6,794.3c120.6,103.3,212.5,126.3,516.8,126.3c145.5,0,264.1,3.8,264.1,9.6c0,3.8-26.8,47.9-61.3,95.7l-61.3,86.1H5047.9H2766.3l-59.3-84.2c-34.5-45.9-61.3-90-61.3-95.7c0-5.8,97.6-11.5,216.3-11.5c252.7,0,354.1-26.8,468.9-126.3c235.4-201,239.3-581.9,9.6-794.3c-156.9-143.6-134-141.7-987.6-147.4c-838.4-5.7-888.1-1.9-1039.3,107.2c-78.5,57.4-752.2,991.5-846,1171.4c-38.3,74.7-44,107.2-38.3,241.2C435-174.6,446.4-126.8,488.5-56c166.5,283.3,558.9,352.2,809.7,141.6c32.5-26.8,181.8-225.8,335-444.1c243.1-348.4,281.4-392.4,323.5-388.6l47.9,5.7l-1.9,258.4c-1.9,363.7-59.3,524.5-256.5,721.6c-185.7,185.7-382.8,254.6-717.8,252.7C909.6,491.4,773.8,478.1,714.4,462.7z"/><path d="M798.6,3.4c-84.2-42.1-145.5-105.3-174.2-174.2c-30.6-70.8-34.5-212.5-7.7-281.4c28.7-76.6,725.4-1058.5,788.6-1112.1c30.6-24.9,86.1-55.5,126.3-67c42.1-11.5,354.1-19.1,790.5-19.1H3040l99.5,49.8c262.2,130.2,269.9,493.8,13.4,635.5c-49.8,28.7-149.3,34.5-698.6,42.1l-639.3,9.6l-279.5,396.2C1219.7-67.5,1187.2-29.2,1101,7.2C1018.7,43.6,869.5,41.7,798.6,3.4z"/><path d="M8895.1,7.2c-82.3-36.4-120.6-82.3-430.7-524.5L8185-913.5l-652.7-9.6l-652.7-9.6l-74.6-59.3c-216.3-172.3-187.6-488.1,55.5-608.7l99.5-49.8h717.8c451.7,0,746.5,7.7,792.4,21.1c42.1,11.5,103.4,47.9,137.8,80.4c82.3,78.5,752.2,1029.8,779,1106.3c11.5,32.5,15.3,105.3,11.5,162.7c-9.6,118.7-76.6,220.1-187.6,277.5C9132.5,39.7,8979.3,43.6,8895.1,7.2z"/></g></g>
</svg>