<svg height="512pt" viewBox="0 -47 512 512" width="512pt" xmlns="http://www.w3.org/2000/svg"><path d="m341.644531 70.808594h30.964844c8.285156 0 15-6.714844 15-15s-6.714844-15-15-15h-30.964844c-8.285156 0-15 6.714844-15 15s6.714844 15 15 15zm0 0"/><path d="m480.015625 128.925781h15.949219c8.285156 0 15-6.71875 15-15 0-8.285156-6.714844-15-15-15h-15.949219c-8.285156 0-15 6.714844-15 15 0 8.28125 6.714844 15 15 15zm0 0"/><path d="m511.992188 196.222656c-.058594-8.117187-6.875-14.886718-14.992188-14.886718h-204.546875v-53.394532h128.742187c8.28125 0 15-6.71875 15-15 0-8.285156-6.71875-15-15-15h-128.742187v-82.941406c0-8.160156-6.84375-15-15-15h-262.453125c-8.15625 0-15 6.839844-15 15v206.457031c0 8.285157 6.714844 15 15 15h204.546875v82.546875h-124.746094c-8.285156 0-15 6.71875-15 15 0 8.285156 6.714844 15 15 15h124.746094v53.789063c0 8.28125 6.714844 15 15 15h262.453125c8.285156 0 15-6.71875 15-15v-206.457031c0-.039063-.003906-.074219-.007812-.113282zm-58.320313 15.113282-87.898437 69.144531-87.898438-69.144531zm-219.546875-181.335938-87.898438 69.144531-87.898437-69.144531zm-204.125 176.457031v-160.574219l106.953125 84.136719c2.722656 2.136719 6 3.207031 9.273437 3.207031 3.277344 0 6.554688-1.070312 9.277344-3.207031l106.953125-84.136719v52.058594h-.703125c-8.285156 0-15 6.714844-15 15 0 8.28125 6.714844 15 15 15h.703125v53.394532h-27.910156c-8.15625 0-15 6.839843-15 15v10.121093zm219.546875 181.335938v-38.789063h.464844c8.285156 0 15-6.714844 15-15 0-8.28125-6.714844-15-15-15h-.464844v-91.785156l106.953125 84.132812c2.71875 2.140626 5.996094 3.210938 9.273438 3.210938 3.277343 0 6.550781-1.070312 9.273437-3.210938l106.953125-84.132812v160.574219zm0 0"/><path d="m35.816406 319.003906h-20.816406c-8.285156 0-15 6.71875-15 15 0 8.285156 6.714844 15 15 15h20.816406c8.285156 0 15-6.714844 15-15 0-8.28125-6.714844-15-15-15zm0 0"/><path d="m179.949219 377.476562h-36.832031c-8.285157 0-15 6.714844-15 15 0 8.285157 6.714843 15 15 15h36.832031c8.285156 0 15-6.714843 15-15 0-8.285156-6.714844-15-15-15zm0 0"/></svg>