<?xml version="1.0" encoding="utf-8"?>
<!-- Svg Vector Icons : http://www.onlinewebfonts.com/icon -->
<!DOCTYPE svg PUBLIC "-//W3C//DTD SVG 1.1//EN" "http://www.w3.org/Graphics/SVG/1.1/DTD/svg11.dtd">
<svg version="1.1" xmlns="http://www.w3.org/2000/svg" xmlns:xlink="http://www.w3.org/1999/xlink" x="0px" y="0px" viewBox="0 0 1000 1000" enable-background="new 0 0 1000 1000" xml:space="preserve">
<metadata> Svg Vector Icons : http://www.onlinewebfonts.com/icon </metadata>
<g><g transform="translate(0.000000,511.000000) scale(0.100000,-0.100000)"><path d="M3808.7,4429.3c-621-266.4-1155.7-506-1188.3-534.7l-57.5-47.9l-5.7-1493.1l-3.8-1493.1L1378.4,385.1C454.6,11.4,193.9-101.7,151.8-145.8L100-201.4V-1865c0-1577.4,1.9-1665.6,34.5-1719.3c32.6-51.8,159.1-107.3,1174.9-525.2c626.7-256.8,1194.1-492.6,1263.1-523.2c69-30.7,151.4-57.5,182.1-59.4c38.3,0,435.1,170.6,1142.3,490.7c596.1,270.3,1092.5,492.6,1104,492.6c9.6,0,506-218.5,1102.1-486.8c596.1-266.4,1100.2-492.6,1121.3-498.3c47.9-15.3,2562.6,1021.6,2622,1081c38.3,38.3,38.3,65.2,47.9,1682.8c5.7,902.8,7.7,1665.6,3.8,1694.3c-3.8,26.8-24.9,70.9-47.9,95.8c-26.9,28.8-458.1,212.7-1215.2,523.3L7460,862.4v1472c0,1587,1.9,1548.7-99.7,1598.5c-216.6,109.2-2326.8,983.2-2367.1,981.3C4962.6,4914.2,4431.7,4695.7,3808.7,4429.3z M5869.2,4122.6c448.5-191.7,818.4-354.6,820.3-364.2c3.8-9.6-375.7-180.2-841.4-379.5l-845.3-364.2L4194,3363.6c-442.7,191.7-828,360.3-852.9,373.8c-40.3,21.1,26.8,53.7,805,387.2c467.7,201.3,864.4,360.3,879.7,354.6C5041.2,4473.4,5420.7,4312.4,5869.2,4122.6z M3941,3020.6c461.9-199.3,843.3-368,847.2-371.8c3.8-3.8,5.7-590.3,3.8-1301.4l-5.7-1295.7L3881.6,456L2975,862.4v1288v1288l63.2-26.8C3070.8,3398.1,3477.2,3221.8,3941,3020.6z M7053.7,2152.3l-5.8-1288l-210.8-93.9c-115-51.8-527.1-235.8-916.2-406.3L5217.5,51.6l3.8,1303.3l5.7,1305.2l900.8,387.2c496.4,214.7,906.6,389.1,916.2,391C7051.8,3440.3,7055.6,2861.5,7053.7,2152.3z M3672.7,95.7c446.6-199.3,806.9-369.9,801.2-375.7c-24.9-21.1-1694.3-770.5-1717.3-770.5c-26.8,1.9-1855.3,753.2-1876.4,772.4c-7.7,5.8,410.2,185.9,929.6,396.8c854.8,346.9,950.7,383.3,996.7,362.3C2835.1,469.5,3224.2,297,3672.7,95.7z M8259.3,95.7c783.9-322,881.7-366.1,843.3-385.2c-78.6-40.3-1824.7-760.9-1843.8-760.9c-23,0-1700.1,751.3-1719.2,770.5c-9.6,7.7,375.7,185.9,852.9,398.7C7205.1,479,7262.6,500.1,7316.2,479C7348.8,467.5,7772.4,295,8259.3,95.7z M1537.5-1002.5l1006.2-415.9l5.7-1376.2c1.9-755.2-1.9-1374.3-9.6-1374.3c-23,0-1987.6,808.8-2012.5,829.9c-19.2,13.4-24.9,314.3-24.9,1385.8c0,753.3,5.7,1368.5,15.3,1366.6C525.5-586.6,983.6-774.5,1537.5-1002.5z M9491.7-1960.9V-3339l-1015.8-421.7L7460-4182.3l3.8,1380l5.7,1380l1006.2,417.8c553.9,230,1008.2,419.7,1012,419.7C9489.8-584.7,9491.7-1203.8,9491.7-1960.9z M4792-1976.2l-5.7-1372.4l-862.5-391c-473.4-214.7-881.7-398.7-904.7-410.2l-44.1-19.2v1376.2v1374.2l897,406.3c492.6,224.3,900.8,406.3,910.4,408.3C4790.1-603.9,4793.9-1221,4792-1976.2z M6145.2-1014l893.2-402.5v-1376.2V-4167l-138,61.3c-76.7,36.4-486.8,218.5-910.4,408.2l-770.5,343.1l-1.9,1376.2c0,812.7,7.7,1374.3,17.3,1370.4C5244.3-609.6,5654.5-793.6,6145.2-1014z"/></g></g>
</svg>