<?xml version="1.0" encoding="utf-8"?>
<!-- Svg Vector Icons : http://www.onlinewebfonts.com/icon -->
<!DOCTYPE svg PUBLIC "-//W3C//DTD SVG 1.1//EN" "http://www.w3.org/Graphics/SVG/1.1/DTD/svg11.dtd">
<svg version="1.1" xmlns="http://www.w3.org/2000/svg" xmlns:xlink="http://www.w3.org/1999/xlink" x="0px" y="0px" viewBox="0 0 1000 1000" enable-background="new 0 0 1000 1000" xml:space="preserve">
<metadata> Svg Vector Icons : http://www.onlinewebfonts.com/icon </metadata>
<g><path d="M966.4,785.8C961,899.3,867.2,990,752.7,990h-3.9H251.2h-3.9C132.8,990,39,899.3,33.6,785.8h-0.2v-10.4v-549v-1.8v-10.4h0.2C39,100.7,132.8,10,247.3,10h395.1v0h30.4l-92.3,78h-23.2h-45.6h-99.5H247.3c-75,0-136.2,61.3-136.2,136.5v26.2v2V390v354.4v0.3v30.7c0,75.3,61.1,136.5,136.2,136.5h164.9l0,0h175.6l0,0h164.9c75,0,136.2-61.3,136.2-136.5v-28.2v-0.8V610V389.9l77.8-76.7v462.2v10.4H966.4z M697.7,443.3l-56.4,59.5c-18.7,19.1-66.1,67.2-81.1,83c-15,16-27.5,29.1-37.3,39.4c-9.8,10.3-15.8,16.2-17.6,17.7c-4.8,4.4-10.1,9-16.2,14c-6.1,4.9-12.4,8.8-19,11.8c-6.6,3.5-16.2,7.6-28.9,12.6c-12.7,4.9-25.9,9.7-39.9,14.3c-13.9,4.7-27,8.7-39.4,12.1c-12.5,3.4-21.7,5.6-27.9,6.7c-12.6,1.4-21.1-0.6-25.3-5.9c-4.2-5.4-5.4-14.5-3.5-27.2c1-6.9,3.2-16.8,6.7-29.8c3.5-13,7.3-26.5,11.2-40.5c4-14,7.9-26.9,11.6-38.6c3.8-11.8,6.8-19.9,9.2-24.3c2.8-6.8,6-13.1,9.5-18.8c3.5-5.6,8.5-11.9,15.1-18.8c2.8-2.9,9.4-9.9,19.7-21c10.3-11.1,53.6-55.1,69.1-71.3l51.4-53.7l57.1-59.5l146-152.5l132.9,134.8L697.7,443.3z M936.1,192.1c-7,7.3-13.3,13.7-18.9,19.2c-5.6,5.5-10.4,10.4-14.5,14.7c-4.7,4.9-9,9.2-13.1,12.8L757.3,104.1c7-6.7,15.4-14.8,25-24.3c9.7-9.5,17.7-16.9,24.1-22.4c8.3-6.7,16.7-11.4,25.5-14.2c8-2.5,15.9-3.7,23.7-3.7c0.7,0,1.4,0,2.1,0c4.3,0.2,8.5,0.6,12.6,1.3c-0.1,0-0.3,0-0.4,0c0.1,0,0.3,0,0.4,0c17.8,3.3,36.4,12.9,52.2,28.2c8.8,8.5,15.9,18.1,21.1,27.9c7.7,14.5,11.3,29.6,10.6,43.4c0,1.7,0.1,3.4,0.1,5.1c0,8-1.5,15.9-4.4,23.8C947.2,177.2,942.4,184.8,936.1,192.1z"/></g>
</svg>