<?xml version="1.0" standalone="no"?>
<!DOCTYPE svg PUBLIC "-//W3C//DTD SVG 20010904//EN"
 "http://www.w3.org/TR/2001/REC-SVG-20010904/DTD/svg10.dtd">
<svg version="1.0" xmlns="http://www.w3.org/2000/svg"
 width="1280.000000pt" height="1280.000000pt" viewBox="0 0 1280.000000 1280.000000"
 preserveAspectRatio="xMidYMid meet">
<g transform="translate(0.000000,1280.000000) scale(0.100000,-0.100000)"
fill="#000000" stroke="none">
<path d="M8615 10685 c-532 -54 -1024 -244 -1378 -533 -116 -95 -268 -261
-345 -375 -153 -229 -226 -445 -239 -703 -20 -421 159 -807 527 -1131 57 -50
106 -96 108 -102 2 -6 -137 -202 -308 -437 -171 -234 -309 -428 -306 -431 3
-3 123 47 268 112 145 64 420 187 611 272 l348 155 122 -36 c556 -166 1094
-177 1645 -35 196 50 311 93 498 184 717 350 1092 945 998 1584 -43 297 -186
565 -434 811 -143 143 -257 230 -431 330 -472 271 -1092 394 -1684 335z"/>
<path d="M4510 9344 c-334 -32 -623 -110 -885 -239 -280 -138 -473 -311 -583
-522 -59 -115 -82 -210 -82 -347 0 -136 15 -200 75 -323 191 -390 697 -671
1375 -764 60 -8 192 -13 355 -13 290 1 431 17 667 75 l127 32 423 -158 c233
-87 452 -169 486 -182 35 -13 62 -19 60 -14 -1 5 -110 131 -240 280 -131 150
-238 278 -238 286 0 7 30 35 68 61 84 60 211 181 267 255 57 72 108 168 135
249 27 82 37 248 21 346 -56 328 -368 637 -824 815 -168 65 -356 114 -562 145
-97 15 -543 27 -645 18z"/>
<path d="M2075 7489 c-365 -49 -669 -150 -933 -307 -272 -162 -505 -392 -646
-637 -141 -247 -203 -567 -162 -844 74 -500 420 -926 968 -1191 358 -173 736
-250 1158 -237 272 9 500 48 721 122 56 19 108 35 115 35 6 0 258 -117 560
-260 302 -143 552 -259 557 -257 8 2 -37 70 -365 545 -103 150 -188 279 -188
287 0 8 24 36 53 62 294 265 463 558 511 885 45 300 -18 614 -176 877 -292
489 -859 828 -1531 916 -128 16 -533 19 -642 4z"/>
<path d="M10405 7324 c-416 -41 -712 -118 -1010 -264 -506 -247 -777 -598
-776 -1004 1 -219 71 -390 246 -600 46 -55 192 -180 271 -233 30 -20 54 -42
54 -50 0 -8 -124 -156 -276 -329 -151 -174 -273 -318 -270 -321 2 -3 252 87
554 200 l548 205 112 -29 c456 -117 984 -130 1449 -34 321 66 611 181 845 334
286 188 465 414 533 676 27 100 25 283 -4 390 -136 512 -735 911 -1556 1035
-110 17 -198 22 -410 25 -148 2 -288 1 -310 -1z"/>
<path d="M6442 6476 c-227 -44 -415 -140 -567 -290 -308 -305 -358 -757 -122
-1106 17 -25 57 -76 90 -113 l60 -68 -141 -232 c-78 -128 -138 -233 -134 -235
4 -1 104 50 222 114 118 64 241 129 273 145 l58 30 87 -30 c142 -49 254 -64
422 -58 248 10 443 77 628 217 155 117 263 263 323 441 30 85 33 108 37 240 4
125 1 158 -17 230 -84 334 -362 600 -726 695 -124 32 -373 42 -493 20z"/>
<path d="M10561 4059 c-123 -24 -265 -128 -324 -238 -100 -182 -66 -414 82
-562 230 -230 619 -165 758 127 46 97 61 190 44 284 -48 265 -300 440 -560
389z"/>
<path d="M5116 4045 c-89 -23 -170 -71 -235 -140 -86 -93 -131 -203 -131 -325
0 -122 45 -232 133 -326 72 -78 167 -128 274 -146 176 -29 367 55 464 204 171
266 54 618 -239 719 -77 27 -192 33 -266 14z"/>
<path d="M6888 4037 c-185 -64 -306 -219 -324 -416 -20 -226 149 -453 374
-500 159 -33 307 9 428 121 181 169 202 448 49 640 -123 154 -341 218 -527
155z"/>
<path d="M8688 4037 c-122 -42 -224 -131 -278 -242 -12 -24 -29 -80 -38 -124
-14 -68 -15 -90 -4 -153 39 -236 239 -408 472 -408 230 0 430 169 471 400 32
178 -50 368 -202 469 -123 82 -285 104 -421 58z"/>
<path d="M3233 4035 c-162 -45 -292 -170 -337 -324 -32 -108 -17 -262 36 -366
27 -52 122 -151 176 -182 108 -64 270 -82 391 -44 156 49 275 177 318 344 20
79 13 200 -17 280 -45 121 -156 232 -279 278 -74 27 -216 35 -288 14z"/>
<path d="M1388 4017 c-185 -64 -306 -219 -324 -416 -20 -226 149 -453 374
-500 160 -34 307 8 428 121 181 169 202 448 49 640 -123 154 -341 218 -527
155z"/>
<path d="M6563 3144 c-3 -9 -3 -615 1 -1348 6 -1151 9 -1333 22 -1346 12 -12
49 -15 203 -15 171 0 191 2 210 19 21 19 21 26 23 520 3 438 5 501 18 501 13
0 15 -64 18 -504 1 -352 6 -508 13 -518 9 -10 57 -13 215 -13 185 0 204 2 213
18 6 11 11 525 13 1357 l3 1340 -90 3 c-79 3 -96 0 -150 -24 -156 -71 -320
-70 -480 1 -47 20 -73 25 -142 25 -68 0 -85 -3 -90 -16z"/>
<path d="M7557 3153 c-4 -3 -7 -260 -7 -570 0 -558 0 -563 20 -563 11 0 40 18
64 40 80 73 77 55 74 539 l-3 429 -30 42 c-30 43 -106 96 -118 83z"/>
<path d="M8363 3144 c-11 -29 8 -2678 19 -2691 8 -10 62 -13 208 -13 178 0
199 2 213 18 15 16 17 71 19 518 3 436 5 499 18 499 13 0 15 -64 18 -504 1
-352 6 -508 13 -518 9 -10 57 -13 215 -13 185 0 204 2 213 18 6 11 11 525 13
1357 l3 1340 -90 3 c-79 3 -96 0 -150 -24 -156 -71 -320 -70 -480 1 -47 20
-73 25 -142 25 -68 0 -85 -3 -90 -16z"/>
<path d="M9357 3153 c-4 -3 -7 -260 -7 -570 0 -558 0 -563 20 -563 11 0 40 18
64 40 80 73 77 55 74 539 l-3 429 -30 42 c-30 43 -106 96 -118 83z"/>
<path d="M10180 1821 c0 -1328 0 -1341 20 -1361 18 -18 33 -20 195 -20 138 0
182 3 205 15 l30 16 0 504 c0 339 3 506 10 510 6 4 17 1 25 -5 13 -11 15 -87
15 -516 l0 -504 26 -10 c14 -6 103 -10 199 -10 150 0 176 2 193 18 l21 17 3
1340 3 1340 -89 3 c-77 2 -98 -1 -150 -22 -94 -39 -143 -49 -241 -49 -77 0
-103 5 -180 33 -73 27 -108 34 -187 37 l-98 4 0 -1340z"/>
<path d="M11166 3144 c-9 -25 -7 -1087 3 -1103 12 -19 42 -7 86 36 66 64 65
58 65 513 0 447 -1 453 -58 513 -23 25 -72 57 -85 57 -3 0 -8 -7 -11 -16z"/>
<path d="M4744 3115 c-4 -21 -4 -326 0 -679 3 -352 9 -942 12 -1311 4 -426 10
-675 16 -682 8 -10 61 -13 204 -13 181 0 195 1 214 20 19 19 20 33 20 520 0
421 2 500 14 500 8 0 17 -7 20 -16 3 -9 6 -237 6 -508 0 -369 3 -495 12 -504
9 -9 69 -12 210 -12 194 0 198 0 212 23 13 19 15 209 18 1357 l3 1335 -105 0
c-92 -1 -113 -4 -166 -28 -127 -55 -291 -55 -418 0 -50 22 -80 27 -163 31
l-102 3 -7 -36z"/>
<path d="M5740 2580 c0 -418 3 -570 11 -570 22 0 77 41 105 78 l29 37 0 455 0
455 -29 37 c-28 37 -83 78 -105 78 -8 0 -11 -152 -11 -570z"/>
<path d="M6469 3127 c-19 -12 -49 -44 -67 -71 l-33 -49 3 -433 3 -432 30 -44
c31 -44 87 -88 111 -88 12 0 14 98 14 570 0 626 4 591 -61 547z"/>
<path d="M8269 3127 c-19 -12 -49 -44 -67 -71 l-33 -49 3 -433 3 -432 30 -44
c31 -44 87 -88 111 -88 12 0 14 98 14 570 0 626 4 591 -61 547z"/>
<path d="M10078 3125 c-21 -14 -49 -45 -63 -69 l-25 -43 0 -430 0 -430 28 -42
c27 -40 89 -91 111 -91 8 0 11 176 11 565 0 450 -3 565 -13 565 -7 0 -29 -11
-49 -25z"/>
<path d="M1063 3124 c-11 -29 8 -2678 19 -2691 8 -10 62 -13 208 -13 178 0
199 2 213 18 15 16 17 71 19 518 3 436 5 499 18 499 13 0 16 -66 20 -510 l5
-509 25 -13 c19 -10 72 -13 208 -11 162 3 185 5 197 21 10 14 14 249 20 1160
3 628 5 1232 3 1342 l-3 200 -92 3 c-78 2 -99 -1 -133 -18 -61 -31 -184 -60
-254 -60 -74 0 -164 21 -241 55 -47 20 -73 25 -142 25 -68 0 -85 -3 -90 -16z"/>
<path d="M2057 3133 c-4 -3 -7 -260 -7 -570 0 -558 0 -563 20 -563 11 0 40 18
64 40 80 73 77 55 74 539 l-3 429 -30 42 c-30 43 -106 96 -118 83z"/>
<path d="M2805 3128 c-32 -17 -85 -71 -101 -100 -11 -22 -14 -107 -14 -466 l0
-439 30 -42 c30 -41 83 -81 108 -81 9 0 12 121 12 570 0 314 -3 570 -7 570 -5
0 -17 -6 -28 -12z"/>
<path d="M2877 3134 c-9 -9 -9 -654 0 -1798 6 -834 7 -880 25 -898 16 -16 37
-18 201 -18 149 0 187 3 205 16 l22 15 0 500 c0 441 2 500 15 506 9 3 19 2 23
-2 4 -3 8 -232 10 -508 2 -454 4 -503 19 -515 26 -19 371 -17 399 3 21 14 21
20 28 687 3 370 9 959 12 1309 4 351 4 653 0 673 l-7 36 -100 0 c-80 0 -108
-4 -139 -20 -116 -59 -308 -65 -435 -14 -56 22 -90 28 -170 31 -55 2 -104 1
-108 -3z"/>
<path d="M3867 3133 c-12 -11 -8 -1121 4 -1128 15 -10 83 38 116 81 l28 37 3
440 3 439 -26 44 c-35 59 -107 109 -128 87z"/>
<path d="M4648 3115 c-21 -14 -49 -45 -63 -69 l-26 -44 3 -439 3 -440 28 -37
c36 -46 104 -93 117 -80 7 7 9 219 8 569 -3 622 1 589 -70 540z"/>
<path d="M969 3107 c-19 -12 -49 -44 -67 -71 l-33 -49 3 -433 3 -432 30 -44
c31 -44 87 -88 111 -88 12 0 14 98 14 570 0 626 4 591 -61 547z"/>
</g>
</svg>
